PathFileType  4	(X/Y/Z) C:\Users\antoi\Documents\MyRepositories\mobilecap\ResultsAnalysis
DataRate	CameraRate	NumFrames	NumMarkers	Units	OrigDataRate	OrigDataStartFrame	OrigNumFrames
100.0	100.0	6	51	mm	100.0	1	136
Frame#	Time	r_knee			r_shank_antsup			r_ankle			r_calc			r_5meta			r_toe			L_knee			L_shank_antsup			L_ankle			L_calc			L_5meta			L_toe			r_sh2			r_sh3			r_sh4			L_sh2			L_sh3			r_thigh1			r_thigh2			r_thigh3			r_thigh4			r_thigh5			L_thigh1			L_thigh2			L_thigh3			L_thigh4			r.ASIS			r.PSIS			L.ASIS			L.PSIS			C7			R_Shoulder			L_Shoulder			R_Sternum			L_Sternum			R_humerus			R_elbow_med			R_elbow_lat			R_forearm			R_wrist_radius			R_wrist_ulna			L_humerus			L_elbow_med			L_elbow_lat			L_forearm			L_wrist_radius			L_wrist_ulna			R_HJC			L_HJC			R_HJC_reg			L_HJC_reg			
		X1	Y1	Z1	X2	Y2	Z2	X3	Y3	Z3	X4	Y4	Z4	X5	Y5	Z5	X6	Y6	Z6	X7	Y7	Z7	X8	Y8	Z8	X9	Y9	Z9	X10	Y10	Z10	X11	Y11	Z11	X12	Y12	Z12	X13	Y13	Z13	X14	Y14	Z14	X15	Y15	Z15	X16	Y16	Z16	X17	Y17	Z17	X18	Y18	Z18	X19	Y19	Z19	X20	Y20	Z20	X21	Y21	Z21	X22	Y22	Z22	X23	Y23	Z23	X24	Y24	Z24	X25	Y25	Z25	X26	Y26	Z26	X27	Y27	Z27	X28	Y28	Z28	X29	Y29	Z29	X30	Y30	Z30	X31	Y31	Z31	X32	Y32	Z32	X33	Y33	Z33	X34	Y34	Z34	X35	Y35	Z35	X36	Y36	Z36	X37	Y37	Z37	X38	Y38	Z38	X39	Y39	Z39	X40	Y40	Z40	X41	Y41	Z41	X42	Y42	Z42	X43	Y43	Z43	X44	Y44	Z44	X45	Y45	Z45	X46	Y46	Z46	X47	Y47	Z47	X48	Y48	Z48	X49	Y49	Z49	X50	Y50	Z50	X51	Y51	Z51	

1	0.00000000	-26.81727	522.01558	-94.62333	23.14838	460.27325	-86.45080	119.74870	108.73304	-111.37202	82.54541	42.12099	-156.31318	284.68694	91.22397	-86.80365	301.78480	130.43556	-143.99850	-282.94684	508.48210	-367.68178	-305.37901	383.80537	-368.97329	-502.25139	117.05270	-336.14873	-586.41736	85.49260	-303.41145	-349.51458	51.53178	-290.95356	-363.23833	29.65949	-358.25023	66.39678	355.88575	-79.80522	-45.15693	433.50605	-63.23531	-10.29258	323.52333	-67.89998	-381.08936	430.73280	-391.87773	-434.66600	322.36047	-388.39000	-60.01188	840.31203	-67.74387	-17.86948	740.23014	-79.41974	-57.02669	693.32472	-45.65483	-163.07717	792.81356	-58.89922	-114.99460	688.71170	-55.57016	-146.04007	816.15138	-404.61519	-160.43185	680.86403	-389.93883	-263.45630	826.80697	-410.54588	-270.48459	686.36930	-398.73282	-85.18981	1018.44673	-115.15002	-285.27965	1058.01623	-179.65082	-98.53882	1005.73295	-376.99344	-290.13025	1060.99199	-283.43011	-282.42570	1565.17252	-251.38808	-221.54730	1511.56481	-70.52708	-205.79802	1532.56595	-409.93471	-131.76755	1491.31303	-213.92796	-128.63514	1491.27137	-267.70182	-278.54775	1244.61692	15.79061	-334.55358	1162.73612	-53.13501	-316.23834	1166.70826	27.78427	-288.60597	1010.03809	49.71598	-278.65035	893.46291	43.43491	-318.86164	906.28570	64.53101	-136.85394	1292.39799	-515.05786	-158.93866	1179.24462	-472.66361	-129.76594	1204.11026	-533.06336	26.64868	1117.43235	-519.94897	111.84026	1074.97467	-491.39449	94.09892	1046.80031	-515.38872	-172.79045	941.07511	-113.78445	-185.71495	933.54706	-343.66490	-161.61112	932.27267	-151.03801	-169.69652	937.23353	-324.02143	
2	0.01000000	-15.05672	520.93620	-93.96386	33.96240	458.42062	-86.30774	125.20942	106.11363	-112.08408	84.78599	42.70316	-156.52401	288.75278	83.89069	-88.79809	307.16275	123.11616	-145.60857	-268.06689	507.51737	-367.02900	-294.05427	383.46050	-368.83895	-498.26085	122.31011	-336.03860	-583.20982	93.88061	-302.99197	-349.58571	51.21198	-290.25281	-363.11215	29.40897	-358.15284	75.68532	353.42845	-80.19722	-34.34796	432.58467	-62.47362	-1.23604	322.21474	-67.65916	-368.11722	432.48063	-391.47459	-425.21396	325.98154	-387.49948	-43.71897	840.31029	-66.02697	-2.51260	739.70129	-78.36900	-42.70112	693.09580	-45.84599	-147.53660	793.89001	-57.82066	-100.06397	689.08207	-56.16580	-131.33008	815.23638	-402.69414	-145.36256	679.96874	-388.29459	-248.73900	825.50982	-408.51080	-255.33605	685.16712	-396.72103	-70.10110	1019.62986	-113.45970	-270.53470	1057.81890	-178.39976	-83.85657	1004.68587	-375.05447	-275.46951	1060.09871	-282.06853	-269.48572	1564.64009	-249.38927	-208.55016	1511.11259	-68.60046	-192.78986	1532.31895	-407.91561	-118.57817	1491.02460	-212.02042	-115.52433	1491.01274	-265.76764	-265.34670	1243.97129	17.12375	-320.40644	1162.08984	-52.31894	-303.06465	1166.10031	28.80817	-275.43140	1009.47520	51.15255	-265.17387	892.90955	45.27511	-305.64386	905.77208	65.76330	-125.32837	1291.71367	-512.92719	-148.12510	1178.73811	-470.45853	-118.75911	1203.28131	-530.95111	36.88843	1115.45585	-518.03507	121.83815	1072.29943	-489.51451	103.77904	1044.24428	-513.50844	-157.58204	941.95589	-111.45362	-170.59827	932.45680	-341.24296	-146.25738	932.64816	-148.68347	-154.48905	936.44843	-321.62605	
3	0.02000000	-3.36724	519.98516	-93.22934	44.77695	456.70544	-86.11349	130.63000	103.62311	-112.77035	87.03932	43.45460	-156.75073	292.63271	76.66218	-90.64222	312.43232	115.81951	-147.08527	-252.67494	506.64471	-366.51639	-282.30236	383.28598	-368.86336	-493.85867	127.86274	-335.94771	-579.51358	102.79022	-302.50728	-349.51437	50.75584	-289.70278	-362.99922	29.15731	-358.03227	85.01810	351.12755	-80.54152	-23.53032	431.76099	-61.63755	7.87040	321.01526	-67.36454	-354.73202	434.46830	-391.00108	-415.31626	329.87078	-386.61975	-27.68688	840.32808	-64.37765	12.53134	739.17090	-77.28336	-28.56989	692.94550	-45.92090	-132.20694	795.00736	-56.65265	-85.36722	689.55413	-56.58827	-116.38639	814.44068	-400.79389	-129.88908	679.18982	-386.74464	-233.73688	824.27288	-406.43915	-239.80382	684.00315	-394.79310	-54.98995	1020.81885	-111.77565	-255.72524	1057.71959	-177.07003	-69.03862	1003.79710	-373.12654	-260.72421	1059.30594	-280.64928	-256.55040	1564.19087	-247.35143	-195.53680	1510.75958	-66.65442	-179.83218	1532.15909	-405.87780	-105.39055	1490.86467	-210.09470	-102.41357	1490.86881	-263.82546	-252.05241	1243.41954	18.50588	-306.20307	1161.52602	-51.42778	-289.77169	1165.56181	29.88496	-262.06056	1008.99032	52.60294	-251.44222	892.44668	47.08840	-292.14786	905.31283	66.98328	-113.86843	1291.08974	-510.77368	-137.39983	1178.32070	-468.19836	-107.85480	1202.51543	-528.78409	46.95214	1113.42753	-516.12208	131.61488	1069.47542	-487.66402	113.23483	1041.58074	-511.64495	-142.31735	942.85472	-109.14607	-155.40558	931.51746	-338.84907	-130.88390	933.14291	-146.35422	-139.22640	935.78617	-319.24937	
4	0.03000000	8.21321	519.28534	-92.36063	55.60080	455.24814	-85.81337	135.92726	101.38780	-113.37774	89.30208	44.48363	-156.99634	296.17798	69.64887	-92.20956	317.48884	108.58159	-148.33096	-236.34831	505.92131	-366.25869	-269.73254	383.41742	-369.19385	-488.68053	133.96914	-335.90107	-574.88142	112.66674	-301.91403	-349.16112	50.11338	-289.39601	-362.90144	28.93018	-357.87304	94.41605	349.11209	-80.78305	-12.69812	431.14024	-60.65099	17.05281	320.03469	-66.93722	-340.55496	436.88299	-390.40730	-404.56598	334.24630	-385.76776	-12.13912	840.41465	-62.83224	27.01931	738.68061	-76.12606	-14.77655	692.95871	-45.73064	-117.26057	796.20816	-55.30697	-71.08985	690.21124	-56.65096	-101.01035	813.86236	-398.93475	-113.67400	678.61988	-385.37430	-218.21485	823.12428	-404.31669	-223.55969	682.89249	-393.03520	-39.86200	1022.02722	-110.08676	-240.82635	1057.80597	-175.61892	-53.99779	1003.19284	-371.19558	-245.84266	1058.69487	-279.14322	-243.62605	1563.89638	-245.24760	-182.49259	1510.58636	-64.67514	-166.96705	1532.16179	-403.81309	-92.21210	1490.93934	-208.13857	-89.30618	1490.93806	-261.87091	-238.58793	1243.03714	19.97728	-291.89592	1161.11117	-50.40034	-276.26085	1165.15037	31.05934	-248.32754	1008.64641	54.07935	-237.23824	892.14905	48.85366	-278.14312	904.95235	68.18633	-102.52900	1290.57536	-508.57505	-126.83419	1178.06515	-465.83091	-97.13569	1201.86157	-526.51461	56.69568	1111.30385	-514.21342	140.98569	1066.38702	-485.87634	122.27860	1038.72262	-509.81585	-126.98661	943.79820	-106.87236	-140.08905	930.84786	-336.49819	-115.50781	933.86728	-144.05443	-123.87965	935.34627	-316.88623	
5	0.04000000	19.67768	518.93958	-91.32609	66.43443	454.13688	-85.35509	140.96053	99.51785	-113.82899	91.54362	45.80124	-157.24576	299.29712	62.98388	-93.41708	322.22717	101.48191	-149.30649	-218.81292	505.35396	-366.32431	-256.02377	383.93216	-369.94807	-482.43692	140.82199	-335.92981	-568.93291	123.81796	-301.20791	-348.38807	49.37211	-289.34436	-362.79144	28.80748	-357.67195	103.85113	347.46620	-80.86407	-1.86418	430.82685	-59.44364	26.29013	319.37453	-66.27419	-325.26673	439.81886	-389.68707	-392.62494	339.23711	-384.96835	2.76660	840.65701	-61.37719	40.82013	738.33011	-74.86170	-1.39192	693.22176	-45.10790	-102.80858	797.53650	-53.70664	-57.34147	691.10961	-56.17528	-85.07927	813.56500	-397.13943	-96.50298	678.31391	-384.25695	-202.03906	822.04472	-402.16174	-206.38421	681.81621	-391.53163	-24.77483	1023.28177	-108.35894	-225.88167	1058.14571	-174.05885	-38.73404	1002.94618	-369.21582	-230.83543	1058.31502	-277.56678	-230.72680	1563.80835	-243.07214	-169.41441	1510.64287	-62.65959	-154.22779	1532.38170	-401.73032	-79.06241	1491.31525	-206.15123	-76.21654	1491.28898	-259.90679	-224.90896	1242.86994	21.56173	-277.45892	1160.88489	-49.19885	-262.47372	1164.90410	32.36171	-234.12359	1008.48274	55.59025	-222.41558	892.06576	50.55947	-263.48474	904.71993	69.37935	-91.35344	1290.20194	-506.31310	-116.47771	1178.01769	-463.31245	-86.66042	1201.34792	-524.10916	66.01879	1109.05802	-512.31717	149.82239	1062.97546	-484.18911	130.77582	1035.61979	-508.04044	-111.65814	944.82571	-104.62591	-124.65562	930.51433	-334.18696	-100.20734	934.91146	-141.75901	-108.47158	935.18969	-314.50024	
6	0.05000000	31.03190	519.01269	-90.12515	77.25316	453.41822	-84.70413	145.55738	98.08485	-114.05771	93.70672	47.32241	-157.47144	301.95665	56.83436	-94.23676	326.53763	94.66644	-150.03565	-199.92245	504.90408	-366.72761	-240.92180	384.84489	-371.19604	-474.89983	148.54602	-336.06628	-561.34656	136.40905	-300.43259	-347.05200	48.75707	-289.50013	-362.59764	28.94314	-357.43841	113.24257	346.22506	-80.74519	8.93475	430.90314	-57.96416	35.51448	319.11194	-65.27590	-308.59028	443.26816	-388.89401	-379.21572	344.87670	-384.24899	16.97325	841.16400	-59.94751	53.93856	738.25875	-73.46320	11.59501	693.80995	-43.93259	-88.87928	799.03939	-51.80082	-44.13625	692.28338	-55.04443	-68.55489	813.57534	-395.43695	-78.28505	678.28847	-383.45953	-185.18931	820.97261	-400.01730	-188.17262	680.72280	-390.35401	-9.82793	1024.62707	-106.54010	-210.99010	1058.78150	-172.45031	-23.32808	1003.07384	-367.11996	-215.76943	1058.18278	-275.97901	-217.86451	1563.95652	-240.84035	-156.30732	1510.94763	-60.61550	-141.62869	1532.85000	-399.65218	-65.95866	1492.01402	-204.14284	-63.16001	1491.95410	-257.94216	-210.99391	1242.93423	23.26454	-262.87948	1160.85790	-47.80934	-248.38312	1164.83939	33.80798	-219.39107	1008.51544	57.14091	-206.89251	892.21921	52.20733	-248.10787	904.63015	70.58105	-80.36721	1289.98277	-503.97540	-106.35223	1178.19779	-460.61034	-76.46043	1200.98387	-521.54936	74.86742	1106.68198	-510.44395	158.06338	1059.23907	-482.63920	138.64922	1032.26025	-506.33845	-96.46243	945.99035	-102.38427	-109.16068	930.52832	-331.89357	-85.10341	936.33759	-139.41723	-93.07036	935.33671	-312.03077	
